<mxfile host="app.diagrams.net" modified="2024-04-13T13:21:15.854Z" agent="Mozilla/5.0 (X11; Ubuntu; Linux x86_64; rv:124.0) Gecko/20100101 Firefox/124.0" version="24.2.2" etag="yY6rYUA6ObXaN6vtQYAr" type="github">
  <diagram name="Page-1" id="9kPb8D5-5_wM30rq8jtt">
    <mxGraphModel>
      <root>
        <mxCell id="0" />
        <mxCell id="1" parent="0" />
      </root>
    </mxGraphModel>
  </diagram>
</mxfile>
